<svg width="46" height="46" viewBox="0 0 46 46" fill="none" xmlns="http://www.w3.org/2000/svg">
<path fill-rule="evenodd" clip-rule="evenodd" d="M23.7344 0.97174C24.0937 0.649225 24.569 0.48017 25.0555 0.501856C35.3398 0.809723 43.9348 8.27554 45.4926 18.2539C45.5025 18.3135 45.5025 18.3742 45.4926 18.4338C45.5261 18.9059 45.3666 19.3717 45.0492 19.7281C44.7318 20.0845 44.2827 20.3022 43.8014 20.333L26.5225 21.4724C25.9511 21.5231 25.3844 21.3351 24.9616 20.9545C24.5389 20.574 24.2992 20.0362 24.3015 19.4733L23.1401 2.50096V2.22108C23.1613 1.74374 23.375 1.29426 23.7344 0.97174ZM22.5492 25.9105L37.5256 24.951L37.6275 24.9909C38.2706 25.0014 38.8831 25.2622 39.3302 25.7159C39.7773 26.1695 40.0224 26.7789 40.0115 27.4098C39.4213 36.0095 33.1164 43.1949 24.5362 45.046C15.9561 46.8972 7.1604 42.9697 2.94751 35.4063C1.70874 33.2279 0.925931 30.8287 0.645022 28.3494C0.536071 27.6148 0.488368 26.8727 0.502389 26.1304C0.530785 16.9859 7.04138 9.09295 16.1512 7.15894C17.254 6.95252 18.3597 7.50314 18.8408 8.49834C18.9606 8.67893 19.0564 8.87374 19.1261 9.07808C19.2968 11.7141 19.474 14.3252 19.6504 16.9253C19.7897 18.9787 19.9285 21.0252 20.0634 23.0718C20.0564 23.5539 20.1322 24.0337 20.2875 24.4912C20.6531 25.3912 21.5631 25.9622 22.5492 25.9105Z" fill="#69B99D"/>
</svg>
