<svg width="40" height="46" viewBox="0 0 40 46" fill="none" xmlns="http://www.w3.org/2000/svg">
<path fill-rule="evenodd" clip-rule="evenodd" d="M19.3882 45.3058C19.6374 45.436 19.916 45.5022 20.1946 45.4999C20.4733 45.4977 20.7496 45.4293 21.001 45.297L29.0288 41.0056C31.3053 39.7921 33.088 38.4352 34.4788 36.8554C37.5028 33.4135 39.1541 29.0206 39.1246 24.491L39.0295 9.54947C39.0204 7.82851 37.8901 6.29288 36.2184 5.73467L21.2842 0.72402C20.3849 0.419542 19.3996 0.426161 18.5162 0.739464L3.63856 5.92883C1.97592 6.5091 0.865994 8.05576 0.875055 9.77893L0.970192 24.7094C0.999639 29.2457 2.70757 33.6187 5.7814 37.0253C7.1858 38.583 8.98434 39.9201 11.2857 41.1137L19.3882 45.3058ZM17.263 27.7451C17.5983 28.0673 18.0332 28.2261 18.4681 28.2217C18.903 28.2195 19.3356 28.0562 19.6664 27.7297L28.4393 19.0807C29.0985 18.4299 29.0917 17.384 28.4257 16.742C27.7575 16.0999 26.6816 16.1044 26.0224 16.7552L18.4432 24.226L15.3399 21.243C14.6717 20.6009 13.598 20.6075 12.9366 21.2584C12.2774 21.9093 12.2842 22.9551 12.9524 23.5972L17.263 27.7451Z" fill="#69B99D"/>
</svg>
